<?xml version="1.0" encoding="UTF-8"?>
<svg width="31px" height="45px" viewBox="0 0 31 45" version="1.1" xmlns="http://www.w3.org/2000/svg" xmlns:xlink="http://www.w3.org/1999/xlink">
    <title>IDT-logo</title>
    <defs>
        <polygon id="path-1" points="0 0 30.7442748 0 30.7442748 45 0 45"></polygon>
        <path d="M0,0 C1.86711009,4.66611852 5.58550816,10.3287256 10.648855,15.8015267 L0,15.8015267 L0,0 Z" id="path-3"></path>
        <path d="M16.8320611,0 L16.8320611,12.5381679 C16.8162263,12.5224162 16.8003915,12.5066644 16.7845567,12.4909126 C11.0366367,6.4580995 4.90869326,2.01618641 0,0 L16.8320611,0 Z" id="path-5"></path>
        <path d="M12.2732064,2.3840401 C15.493769,4.1223085 18.9873899,6.75187754 22.2847274,10.0748558 C22.6013226,10.3756494 22.9020878,10.6764431 23.1870229,10.9930683 L23.1870229,13.2094448 C22.6171527,12.5445313 22.0314524,11.8954493 21.398262,11.2463674 C14.4964933,4.0906454 6.58161878,0.560279069 3.71643756,3.3307483 C0.835420595,6.10121753 4.09634725,14.1434889 10.9981159,21.2833793 C11.3463712,21.6316677 11.6946265,21.979956 12.0428818,22.3282443 L9.9375257,22.3282443 C1.72188604,14.0484997 -2.17222932,4.59724917 1.23116603,1.20936105 C3.26845126,-0.818620649 7.46808422,-0.208328519 12.2732064,2.3840401 Z" id="path-7"></path>
        <path d="M15.9426312,6.90774473 C16.7657164,7.76171138 17.5254807,8.63149254 18.2061069,9.51708821 L18.2061069,17.519084 L14.5813846,17.519084 L11.2574035,6.95518827 L8.39245132,17.519084 L8.04422386,17.519084 C7.52187982,17.0446543 6.99954147,16.5386012 6.49303191,16.0167337 C0.873923277,10.1971009 -1.56366326,3.46024343 1.04803416,0.945787038 C3.65973158,-1.56867505 10.3235226,1.10392648 15.9426312,6.90774473 Z" id="path-9"></path>
        <path d="M2.08063492,0 L2.08063492,10.9923664 L-8.06050051e-16,10.9923664 L-8.06050051e-16,0 L2.08063492,0 Z M24.9045802,0 L24.9045802,1.66456132 L21.1373651,1.66456132 L21.1373651,10.9923664 L19.0567296,10.9923664 L19.0567296,1.66456132 L15.3052829,1.66456132 L15.3052829,0 L24.9045802,0 Z M9.59929664,0 C10.5135157,0 11.3016332,0.141333077 11.9636549,0.423993581 C12.6256766,0.706654084 13.1773594,1.09924031 13.5871837,1.60174662 C13.9970023,2.10425293 14.3280131,2.68527761 14.5329281,3.34482067 C14.7378374,4.00436373 14.8481706,4.72672148 14.8481706,5.48048094 C14.8481706,6.2342404 14.7378374,6.95659816 14.5329281,7.61614122 C14.3280131,8.27568428 14.012765,8.87241038 13.5871837,9.35921527 C13.1615967,9.86172327 12.6256766,10.2543078 11.9636549,10.5369689 C11.3016332,10.8196294 10.5135157,10.9609596 9.59929664,10.9609596 L4.68142785,10.9609596 L4.68142785,0 L9.59929664,0 Z M8.81117911,1.57033927 L6.76206334,1.57033927 L6.76206334,9.42202884 L8.81117911,9.42202884 C9.61505933,9.42202884 10.277081,9.32780848 10.7972385,9.12366466 C11.3173959,8.91952084 11.7114575,8.65256344 12.010943,8.29138795 C12.3104284,7.93020907 12.499575,7.52191917 12.6099139,7.05082021 C12.7202527,6.57971561 12.7675351,6.06150563 12.7675351,5.49618462 C12.7675351,4.93086361 12.7202527,4.42835731 12.6099139,3.94154902 C12.499575,3.45474639 12.3104284,3.04645649 12.010943,2.70098128 C11.7114575,2.35550608 11.3173959,2.07284558 10.7972385,1.86870345 C10.277081,1.66456132 9.61505933,1.57033927 8.81117911,1.57033927 Z" id="path-11"></path>
    </defs>
    <g id="Page-1" stroke="none" stroke-width="1" fill="none" fill-rule="evenodd">
        <g id="IDT-logo">
            <g id="Group-3">
                <mask id="mask-2" fill="white">
                    <use xlink:href="#path-1"></use>
                </mask>
                <g id="Clip-2"></g>
                <polygon id="Fill-1" fill="#333333" mask="url(#mask-2)" points="-4.03745919e-16 45 30.7442748 45 30.7442748 0 -4.03745919e-16 0"></polygon>
            </g>
            <g id="Group-6" transform="translate(2.748092, 11.851145)">
                <mask id="mask-4" fill="white">
                    <use xlink:href="#path-3"></use>
                </mask>
                <g id="Clip-5"></g>
                <polygon id="Fill-4" fill="#FFCC00" mask="url(#mask-4)" points="-0.0632919062 15.8489739 10.6646742 15.8489739 10.6646742 0 -0.0632919062 0"></polygon>
            </g>
            <g id="Group-9" transform="translate(10.820611, 2.748092)">
                <mask id="mask-6" fill="white">
                    <use xlink:href="#path-5"></use>
                </mask>
                <g id="Clip-8"></g>
                <polygon id="Fill-7" fill="#FFCC00" mask="url(#mask-6)" points="-0.0791739424 12.5539197 16.8320611 12.5539197 16.8320611 -0.0157517663 -0.0791739424 -0.0157517663"></polygon>
            </g>
            <g id="Group-12" transform="translate(4.465649, 5.496183)">
                <mask id="mask-8" fill="white">
                    <use xlink:href="#path-7"></use>
                </mask>
                <g id="Clip-11"></g>
                <polygon id="Fill-10" fill="#FFCC00" mask="url(#mask-8)" points="-0.0827049383 22.3757332 23.1870229 22.3757332 23.1870229 -0.041308275 -0.0827049383 -0.041308275"></polygon>
            </g>
            <g id="Group-15" transform="translate(9.446565, 10.133588)">
                <mask id="mask-10" fill="white">
                    <use xlink:href="#path-9"></use>
                </mask>
                <g id="Clip-14"></g>
                <polygon id="Fill-13" fill="#FFCC00" mask="url(#mask-10)" points="-0.0283000874 17.5665218 18.2061069 17.5665218 18.2061069 -0.082139253 -0.0283000874 -0.082139253"></polygon>
            </g>
            <g id="Group-18" transform="translate(3.091603, 30.744275)">
                <mask id="mask-12" fill="white">
                    <use xlink:href="#path-11"></use>
                </mask>
                <g id="Clip-17"></g>
                <polygon id="Fill-16" fill="#FFFFFF" mask="url(#mask-12)" points="-8.06050051e-16 11.0237732 24.9676315 11.0237732 24.9676315 2.26033469e-06 -8.06050051e-16 2.26033469e-06"></polygon>
            </g>
        </g>
    </g>
</svg>